<svg xmlns="http://www.w3.org/2000/svg" version="1.1" xmlns:xlink="http://www.w3.org/1999/xlink" viewBox="0 0 200 200"><rect width="200" height="200" fill="url('#gradient')"></rect><defs><linearGradient id="gradient" gradientTransform="rotate(40 0.5 0.5)"><stop offset="0%" stop-color="#000000"></stop><stop offset="100%" stop-color="#0d24fa"></stop></linearGradient></defs><g><g fill="#f9fcfc" transform="matrix(1.5908855515277058,0,0,1.5908855515277058,9.00408101075675,111.30761657311841)" stroke="#f4fafa" stroke-width="0"><path d="M8.41-3.78L8.41-3.78Q8.41-4.53 7.88-4.95Q7.34-5.37 6.01-5.82Q4.67-6.27 3.82-6.69L3.82-6.69Q1.05-8.05 1.05-10.42L1.05-10.42Q1.05-11.60 1.74-12.50Q2.43-13.41 3.69-13.91Q4.95-14.41 6.52-14.41L6.52-14.41Q8.06-14.41 9.27-13.87Q10.49-13.32 11.16-12.31Q11.84-11.30 11.84-10L11.84-10L8.42-10Q8.42-10.87 7.89-11.35Q7.35-11.83 6.45-11.83L6.45-11.83Q5.53-11.83 5.00-11.42Q4.46-11.02 4.46-10.39L4.46-10.39Q4.46-9.84 5.05-9.40Q5.63-8.96 7.11-8.48Q8.58-8.01 9.53-7.46L9.53-7.46Q11.84-6.13 11.84-3.80L11.84-3.80Q11.84-1.93 10.43-0.87Q9.02 0.20 6.57 0.20L6.57 0.20Q4.84 0.20 3.44-0.42Q2.04-1.04 1.33-2.12Q0.63-3.20 0.63-4.61L0.63-4.61L4.06-4.61Q4.06-3.47 4.65-2.92Q5.24-2.38 6.57-2.38L6.57-2.38Q7.42-2.38 7.92-2.75Q8.41-3.12 8.41-3.78ZM17.25-14.22L17.25 0L13.83 0L13.83-14.22L17.25-14.22ZM23.28-14.22L23.28 0L19.86 0L19.86-14.22L23.28-14.22ZM28.36-14.22L31.18-3.87L34.01-14.22L37.84-14.22L33.06 0L29.31 0L24.56-14.22L28.36-14.22ZM50.79-7.47L50.79-6.82Q50.79-4.74 50.02-3.13Q49.25-1.53 47.83-0.67Q46.41 0.20 44.59 0.20Q42.77 0.20 41.37-0.64Q39.96-1.47 39.17-3.03Q38.39-4.58 38.35-6.59L38.35-6.59L38.35-7.39Q38.35-9.48 39.12-11.08Q39.88-12.68 41.31-13.54Q42.74-14.41 44.57-14.41L44.57-14.41Q46.38-14.41 47.79-13.55Q49.21-12.70 50.00-11.11Q50.78-9.52 50.79-7.47L50.79-7.47ZM47.30-6.76L47.30-7.41Q47.30-9.53 46.60-10.63Q45.89-11.73 44.57-11.73L44.57-11.73Q41.99-11.73 41.85-7.86L41.85-7.86L41.84-6.82Q41.84-4.73 42.53-3.60Q43.22-2.48 44.59-2.48L44.59-2.48Q45.89-2.48 46.59-3.58Q47.29-4.69 47.30-6.76L47.30-6.76ZM60.28-14.22L63.71-14.22L63.71-4.91Q63.71-3.33 63.04-2.17Q62.36-1.02 61.10-0.41Q59.84 0.20 58.13 0.20L58.13 0.20Q55.53 0.20 54.03-1.15Q52.54-2.50 52.51-4.84L52.51-4.84L52.51-14.22L55.96-14.22L55.96-4.78Q56.02-2.44 58.13-2.44L58.13-2.44Q59.19-2.44 59.74-3.03Q60.28-3.61 60.28-4.93L60.28-4.93L60.28-14.22ZM73.18-3.78L73.18-3.78Q73.18-4.53 72.65-4.95Q72.12-5.37 70.78-5.82Q69.44-6.27 68.59-6.69L68.59-6.69Q65.83-8.05 65.83-10.42L65.83-10.42Q65.83-11.60 66.52-12.50Q67.21-13.41 68.47-13.91Q69.73-14.41 71.30-14.41L71.30-14.41Q72.83-14.41 74.05-13.87Q75.26-13.32 75.94-12.31Q76.61-11.30 76.61-10L76.61-10L73.19-10Q73.19-10.87 72.66-11.35Q72.13-11.83 71.22-11.83L71.22-11.83Q70.30-11.83 69.77-11.42Q69.24-11.02 69.24-10.39L69.24-10.39Q69.24-9.84 69.82-9.40Q70.41-8.96 71.88-8.48Q73.36-8.01 74.31-7.46L74.31-7.46Q76.61-6.13 76.61-3.80L76.61-3.80Q76.61-1.93 75.21-0.87Q73.80 0.20 71.35 0.20L71.35 0.20Q69.62 0.20 68.22-0.42Q66.82-1.04 66.11-2.12Q65.40-3.20 65.40-4.61L65.40-4.61L68.84-4.61Q68.84-3.47 69.43-2.92Q70.02-2.38 71.35-2.38L71.35-2.38Q72.20-2.38 72.69-2.75Q73.18-3.12 73.18-3.78ZM90.41-7.47L90.41-6.82Q90.41-4.74 89.64-3.13Q88.87-1.53 87.45-0.67Q86.03 0.20 84.21 0.20Q82.39 0.20 80.99-0.64Q79.58-1.47 78.79-3.03Q78.01-4.58 77.97-6.59L77.97-6.59L77.97-7.39Q77.97-9.48 78.74-11.08Q79.50-12.68 80.93-13.54Q82.36-14.41 84.19-14.41L84.19-14.41Q86.00-14.41 87.41-13.55Q88.83-12.70 89.61-11.11Q90.40-9.52 90.41-7.47L90.41-7.47ZM86.92-6.76L86.92-7.41Q86.92-9.53 86.22-10.63Q85.51-11.73 84.19-11.73L84.19-11.73Q81.61-11.73 81.46-7.86L81.46-7.86L81.46-6.82Q81.46-4.73 82.15-3.60Q82.84-2.48 84.21-2.48L84.21-2.48Q85.51-2.48 86.21-3.58Q86.91-4.69 86.92-6.76L86.92-6.76ZM102.51-14.22L102.51-11.57L98.24-11.57L98.24 0L94.81 0L94.81-11.57L90.63-11.57L90.63-14.22L102.51-14.22ZM112.77-8.57L112.77-6.03L107.38-6.03L107.38-2.64L113.75-2.64L113.75 0L103.96 0L103.96-14.22L113.77-14.22L113.77-11.57L107.38-11.57L107.38-8.57L112.77-8.57Z"></path></g></g></svg>