<svg xmlns="http://www.w3.org/2000/svg" version="1.1" xmlns:xlink="http://www.w3.org/1999/xlink" viewBox="0 0 200 200"><rect width="200" height="200" fill="url('#gradient')"></rect><defs><linearGradient id="gradient" gradientTransform="rotate(55 0.5 0.5)"><stop offset="0%" stop-color="#ecf6f2"></stop><stop offset="100%" stop-color="#8ebbe3"></stop></linearGradient></defs><g><g fill="#083bef" transform="matrix(1.5887463798096815,0,0,1.5887463798096815,24.00528459658443,111.67297484867821)" stroke="#dda721" stroke-width="0.2"><path d="M8.41-3.78L8.41-3.78Q8.41-4.53 7.88-4.95Q7.34-5.37 6.01-5.82Q4.67-6.27 3.82-6.69L3.82-6.69Q1.05-8.05 1.05-10.42L1.05-10.42Q1.05-11.60 1.74-12.50Q2.43-13.41 3.69-13.91Q4.95-14.41 6.52-14.41L6.52-14.41Q8.06-14.41 9.27-13.87Q10.49-13.32 11.16-12.31Q11.84-11.30 11.84-10L11.84-10L8.42-10Q8.42-10.87 7.89-11.35Q7.35-11.83 6.45-11.83L6.45-11.83Q5.53-11.83 5.00-11.42Q4.46-11.02 4.46-10.39L4.46-10.39Q4.46-9.84 5.05-9.40Q5.63-8.96 7.11-8.48Q8.58-8.01 9.53-7.46L9.53-7.46Q11.84-6.13 11.84-3.80L11.84-3.80Q11.84-1.93 10.43-0.87Q9.02 0.20 6.57 0.20L6.57 0.20Q4.84 0.20 3.44-0.42Q2.04-1.04 1.33-2.12Q0.63-3.20 0.63-4.61L0.63-4.61L4.06-4.61Q4.06-3.47 4.65-2.92Q5.24-2.38 6.57-2.38L6.57-2.38Q7.42-2.38 7.92-2.75Q8.41-3.12 8.41-3.78ZM16.91-10.57L16.91 0L13.61 0L13.61-10.57L16.91-10.57ZM13.42-13.29L13.42-13.29Q13.42-13.99 13.93-14.44Q14.43-14.89 15.24-14.89Q16.05-14.89 16.56-14.44Q17.07-13.99 17.07-13.29Q17.07-12.59 16.56-12.14Q16.05-11.69 15.24-11.69Q14.43-11.69 13.93-12.14Q13.42-12.59 13.42-13.29ZM22.41-10.57L22.41 0L19.11 0L19.11-10.57L22.41-10.57ZM18.92-13.29L18.92-13.29Q18.92-13.99 19.42-14.44Q19.93-14.89 20.74-14.89Q21.55-14.89 22.06-14.44Q22.57-13.99 22.57-13.29Q22.57-12.59 22.06-12.14Q21.55-11.69 20.74-11.69Q19.93-11.69 19.42-12.14Q18.92-12.59 18.92-13.29ZM27.01-10.57L28.65-3.92L30.32-10.57L33.79-10.57L30.34 0L26.98 0L23.54-10.57L27.01-10.57ZM34.22-4.82L34.21-5.38Q34.21-6.96 34.82-8.20Q35.44-9.43 36.59-10.10Q37.74-10.76 39.30-10.76L39.30-10.76Q41.67-10.76 43.04-9.29Q44.40-7.82 44.40-5.29L44.40-5.29L44.40-5.18Q44.40-2.71 43.03-1.25Q41.66 0.20 39.32 0.20L39.32 0.20Q37.06 0.20 35.69-1.16Q34.33-2.51 34.22-4.82L34.22-4.82ZM37.51-5.77L37.50-5.18Q37.50-3.71 37.96-3.03Q38.42-2.34 39.32-2.34L39.32-2.34Q41.07-2.34 41.11-5.05L41.11-5.05L41.11-5.38Q41.11-8.22 39.30-8.22L39.30-8.22Q37.65-8.22 37.51-5.77L37.51-5.77ZM52.25 0L52.15-1.14Q51.10 0.20 49.33 0.20L49.33 0.20Q47.59 0.20 46.69-0.82Q45.80-1.83 45.80-3.72L45.80-3.72L45.80-10.57L49.09-10.57L49.09-3.70Q49.09-2.34 50.41-2.34L50.41-2.34Q51.54-2.34 52.02-3.15L52.02-3.15L52.02-10.57L55.33-10.57L55.33 0L52.25 0ZM62.67-2.97L62.67-2.97Q62.67-3.39 62.23-3.64Q61.79-3.90 60.56-4.17Q59.33-4.44 58.53-4.89Q57.72-5.33 57.30-5.97Q56.88-6.60 56.88-7.42L56.88-7.42Q56.88-8.88 58.09-9.82Q59.29-10.76 61.23-10.76L61.23-10.76Q63.32-10.76 64.59-9.81Q65.86-8.87 65.86-7.32L65.86-7.32L62.56-7.32Q62.56-8.59 61.22-8.59L61.22-8.59Q60.70-8.59 60.35-8.31Q60-8.02 60-7.59L60-7.59Q60-7.15 60.43-6.88Q60.86-6.60 61.80-6.43Q62.74-6.25 63.46-6.01L63.46-6.01Q65.84-5.19 65.84-3.07L65.84-3.07Q65.84-1.62 64.56-0.71Q63.27 0.20 61.23 0.20L61.23 0.20Q59.87 0.20 58.81-0.29Q57.74-0.78 57.15-1.62Q56.55-2.46 56.55-3.39L56.55-3.39L59.63-3.39Q59.65-2.66 60.12-2.32Q60.59-1.98 61.32-1.98L61.32-1.98Q61.99-1.98 62.33-2.26Q62.67-2.53 62.67-2.97ZM66.97-4.82L66.96-5.38Q66.96-6.96 67.58-8.20Q68.19-9.43 69.35-10.10Q70.50-10.76 72.05-10.76L72.05-10.76Q74.42-10.76 75.79-9.29Q77.16-7.82 77.16-5.29L77.16-5.29L77.16-5.18Q77.16-2.71 75.79-1.25Q74.41 0.20 72.07 0.20L72.07 0.20Q69.81 0.20 68.45-1.16Q67.08-2.51 66.97-4.82L66.97-4.82ZM70.26-5.77L70.25-5.18Q70.25-3.71 70.71-3.03Q71.17-2.34 72.07-2.34L72.07-2.34Q73.83-2.34 73.87-5.05L73.87-5.05L73.87-5.38Q73.87-8.22 72.05-8.22L72.05-8.22Q70.40-8.22 70.26-5.77L70.26-5.77ZM79.15-13.19L82.44-13.19L82.44-10.57L84.18-10.57L84.18-8.28L82.44-8.28L82.44-3.45Q82.44-2.85 82.66-2.62Q82.87-2.38 83.51-2.38L83.51-2.38Q83.99-2.38 84.33-2.44L84.33-2.44L84.33-0.09Q83.44 0.20 82.47 0.20L82.47 0.20Q80.77 0.20 79.96-0.61Q79.15-1.41 79.15-3.04L79.15-3.04L79.15-8.28L77.80-8.28L77.80-10.57L79.15-10.57L79.15-13.19ZM90.59 0.20L90.59 0.20Q88.15 0.20 86.65-1.25Q85.15-2.71 85.15-5.03L85.15-5.03L85.15-5.30Q85.15-6.92 85.75-8.16Q86.35-9.40 87.50-10.08Q88.65-10.76 90.23-10.76L90.23-10.76Q92.46-10.76 93.75-9.38Q95.04-8.00 95.04-5.53L95.04-5.53L95.04-4.25L88.50-4.25Q88.67-3.36 89.27-2.85Q89.86-2.34 90.81-2.34L90.81-2.34Q92.37-2.34 93.25-3.44L93.25-3.44L94.76-1.66Q94.14-0.81 93.01-0.31Q91.88 0.20 90.59 0.20ZM90.21-8.22L90.21-8.22Q88.77-8.22 88.50-6.31L88.50-6.31L91.82-6.31L91.82-6.56Q91.84-7.35 91.42-7.79Q91.00-8.22 90.21-8.22Z"></path></g></g></svg>