<svg version="1.1" id="Layer_1" xmlns="http://www.w3.org/2000/svg" xmlns:xlink="http://www.w3.org/1999/xlink" x="0px" y="0px"
	 width="100%" viewBox="0 0 688 464" enable-background="new 0 0 688 464" xml:space="preserve">
<path fill="#000000" opacity="1.000000" stroke="none" 
	d="
M299.182404,94.137238 
	C310.862122,84.934769 321.424835,84.896019 332.478943,94.107590 
	C335.086670,96.280640 337.904297,97.026237 341.044250,97.640182 
	C349.424622,99.278740 357.331635,101.732887 360.357086,111.130318 
	C361.163147,113.634087 363.605072,114.027443 365.610199,114.380379 
	C373.300140,115.733925 379.470490,118.802147 382.196167,126.805153 
	C383.586273,130.886673 387.677704,130.687469 390.954620,131.519897 
	C402.262451,134.392410 406.652222,141.246689 404.214386,152.583344 
	C403.795990,154.529083 403.231964,156.466843 402.504913,158.317825 
	C401.148346,161.771515 402.405212,163.385269 405.916992,163.582764 
	C410.212585,163.824371 414.510101,164.032669 418.997650,164.265274 
	C419.607025,162.668259 420.084290,161.086136 420.796539,159.618042 
	C422.408051,156.296417 426.008179,154.271591 428.554260,156.063110 
	C434.258850,160.077118 439.825012,155.357346 445.288177,156.994141 
	C447.025421,157.514618 447.808868,155.633881 448.839630,154.661026 
	C457.522858,146.465500 467.282257,140.508133 479.478119,139.256744 
	C490.189667,138.157669 500.431305,139.951523 510.064728,144.534286 
	C518.777100,148.678894 527.121155,153.595306 535.817078,157.777267 
	C544.665649,162.032593 553.910889,163.361664 563.361450,159.559387 
	C565.402283,158.738281 566.911377,159.263657 568.166382,160.919724 
	C569.834412,163.120804 569.532715,165.361252 567.946716,167.360260 
	C563.570862,172.875610 557.403748,173.928818 550.906372,173.716614 
	C540.650513,173.381653 531.560608,169.191574 522.571777,164.768784 
	C511.680115,159.409714 501.037506,153.320908 487.369324,153.339020 
	C500.054993,156.210678 509.724274,163.198120 519.968750,169.037933 
	C526.776794,172.918869 533.657104,176.512131 541.552795,177.902374 
	C550.060974,179.400497 557.719543,177.779938 564.749878,172.894974 
	C567.384583,171.064285 570.235107,170.480774 572.299316,173.199036 
	C574.312622,175.850403 574.143433,179.580490 571.361572,181.230927 
	C567.040894,183.794312 566.530212,187.929733 564.909790,191.859604 
	C560.046936,203.653503 551.152710,211.856308 539.961426,217.406052 
	C513.575928,230.490494 486.740417,232.129532 459.653809,219.457748 
	C452.602570,216.159012 447.066895,210.853302 441.922333,204.737488 
	C436.978790,208.019592 432.477692,207.967102 428.625458,203.218994 
	C428.051880,202.512024 427.244843,202.619431 426.353973,202.728333 
	C417.527130,203.807190 416.362030,202.911697 414.533844,193.626541 
	C409.633057,193.436935 404.805389,192.229950 399.996796,191.032593 
	C397.081818,190.306793 395.875427,191.554016 395.445953,194.045364 
	C392.651367,210.255661 384.686737,223.631531 372.956848,234.885590 
	C370.706970,237.044189 370.405731,238.847672 372.348297,241.270981 
	C377.927429,248.230881 381.371368,256.889832 389.027496,262.209900 
	C389.338135,262.425751 389.369263,263.043854 389.817383,264.240112 
	C383.182098,264.240112 376.951782,264.288605 370.722931,264.212646 
	C368.666718,264.187561 368.086731,262.504333 367.586548,260.847687 
	C366.239502,256.386047 364.718353,251.971191 363.539886,247.466202 
	C362.550049,243.682373 360.648010,241.802750 356.481049,242.260742 
	C353.234528,242.617584 349.920013,242.378174 347.184448,240.174911 
	C347.699310,238.114517 349.373718,237.976379 350.659302,237.376770 
	C367.171692,229.675049 376.168793,216.119339 380.685181,199.017075 
	C381.535919,195.795471 380.593567,194.524490 377.177155,194.239258 
	C371.548187,193.769272 365.925018,193.001617 360.363251,192.003616 
	C349.757202,190.100433 340.547333,192.400543 332.959839,200.305679 
	C332.419312,200.868835 331.658569,201.220657 331.045471,201.639847 
	C329.115631,200.620850 328.919983,198.851318 328.543732,197.322861 
	C324.114960,179.331619 311.586548,169.368195 295.070526,163.240585 
	C291.489410,161.911957 288.001373,160.300293 284.563965,158.627029 
	C281.940491,157.349991 280.097351,155.353729 279.302399,152.344177 
	C278.061188,147.645248 280.046509,145.029465 284.837952,145.864456 
	C290.402405,146.834198 295.891571,148.228577 301.428741,149.363876 
	C312.109070,151.553680 320.079834,148.029617 324.640656,139.266724 
	C326.398102,135.890060 326.063568,133.309967 322.490753,131.350372 
	C311.787506,125.479881 300.150665,121.786736 289.037323,116.876427 
	C286.495697,115.753426 284.247711,116.949097 282.634705,118.544876 
	C270.494965,130.555054 260.212891,144.034271 252.195480,159.107269 
	C249.795792,163.618774 251.665802,168.655762 253.075821,173.244644 
	C258.520355,190.963715 268.535004,205.955414 281.118988,219.356232 
	C284.748688,223.221497 288.423035,227.044800 292.483276,231.314651 
	C285.674408,235.160538 285.208954,241.976013 283.427887,248.067886 
	C272.969147,283.840668 265.406311,320.343658 256.151306,356.420349 
	C255.617661,358.500610 256.014923,361.765137 253.036331,362.087036 
	C248.790283,362.545898 244.377579,363.166992 240.224533,361.599030 
	C239.077301,361.165894 238.911072,359.416168 238.605377,358.089355 
	C232.407501,331.187531 226.184769,304.291443 219.942978,277.399780 
	C219.047119,273.540161 219.775909,271.512695 224.454041,271.621643 
	C238.822876,271.956238 236.599365,269.956635 239.332062,284.059143 
	C241.793686,296.762726 244.098587,309.496643 246.945877,322.285339 
	C249.699722,316.860901 250.340897,310.869141 251.411484,305.087036 
	C256.131989,279.592041 261.506317,254.233597 266.989380,228.897705 
	C267.502380,226.527161 267.349854,224.783585 265.800812,222.943512 
	C254.333374,209.321625 247.525604,193.245529 241.740219,176.675171 
	C238.713669,168.006622 238.403076,168.156830 229.029495,167.214447 
	C216.466278,165.951401 203.991058,163.812668 191.478439,162.047119 
	C170.894669,159.142715 150.318741,156.181152 129.724045,153.356445 
	C121.054054,152.167282 114.674644,144.715530 115.912735,136.864563 
	C117.202385,128.686646 124.948196,123.783112 133.855133,125.042915 
	C159.682648,128.695969 185.538254,132.149826 211.377014,135.724030 
	C221.750259,137.158936 232.142105,138.509064 242.455627,140.300140 
	C246.271942,140.962891 248.905518,140.089035 251.155167,137.142761 
	C256.309937,130.391754 261.349091,123.543037 266.738403,116.983086 
	C272.669373,109.763809 279.414001,103.718117 289.634003,103.603973 
	C293.072510,103.565567 293.752197,100.110153 295.550018,98.060638 
	C296.646271,96.810913 297.794342,95.606659 299.182404,94.137238 
M360.378296,163.914703 
	C362.501312,159.030441 364.665466,154.163559 366.735779,149.257065 
	C368.804260,144.354767 370.992096,139.478333 372.160004,134.261826 
	C373.074860,130.175888 370.152771,125.448776 366.272980,124.576225 
	C361.708740,123.549736 360.091858,126.565216 358.816376,130.109375 
	C357.803558,132.923859 356.720367,135.722458 355.489166,138.447113 
	C352.065552,146.023590 347.727570,153.188583 345.194214,161.164688 
	C343.147034,167.610107 343.974060,170.603287 348.114288,172.208008 
	C352.482788,173.901230 356.048401,172.126801 358.926239,166.811478 
	C359.322144,166.080185 359.660461,165.317673 360.378296,163.914703 
M328.151978,165.667450 
	C331.191589,165.405945 332.879730,163.477081 333.958160,160.871277 
	C339.672394,147.064545 345.889099,133.459015 350.616943,119.256523 
	C351.280273,117.263786 351.405579,115.457436 350.037415,113.617767 
	C344.921112,106.738274 336.386261,107.341515 332.668915,114.913719 
	C332.083618,116.106041 331.629425,117.363251 331.033295,118.549622 
	C329.750427,121.102852 330.015106,123.285545 332.240906,125.247276 
	C336.868591,129.325958 337.130554,134.416565 335.319489,139.849854 
	C333.033905,146.706757 328.975372,152.213562 322.675812,155.940506 
	C320.936188,156.969696 319.065613,158.017242 319.366058,160.436386 
	C319.663696,162.833481 321.444214,164.195694 323.498260,165.026535 
	C324.687531,165.507614 326.075500,165.497467 328.151978,165.667450 
M389.464203,158.966080 
	C390.669312,156.045807 391.947144,153.152985 393.061951,150.198654 
	C394.634888,146.030243 392.597260,143.351288 388.966064,141.871857 
	C385.450165,140.439423 382.019867,140.459610 380.109253,144.630402 
	C376.088501,153.407578 372.001099,162.156326 368.139008,171.003159 
	C366.327301,175.153244 368.367310,178.111313 372.910034,178.670380 
	C376.583527,179.122452 378.889679,177.102951 380.815552,174.428574 
	C384.139252,169.813202 386.467529,164.630539 389.464203,158.966080 
M519.920959,182.688370 
	C514.942566,179.993622 510.056091,177.108704 504.964966,174.647049 
	C496.557068,170.581696 487.923309,167.150360 478.296356,167.592377 
	C482.529694,168.653671 486.497803,170.364441 490.250977,172.509109 
	C496.752899,176.224503 503.207703,180.025986 509.614990,183.902542 
	C519.474731,189.867889 529.968445,192.251068 541.458435,189.701782 
	C534.231384,188.235931 526.972900,186.961334 519.920959,182.688370 
M321.555389,99.892151 
	C315.000854,97.707588 306.926636,101.015190 303.895477,107.060730 
	C303.311523,108.225319 303.064941,109.327431 304.043579,110.251785 
	C307.635895,113.644829 311.944885,116.262344 316.785767,116.354561 
	C320.826050,116.431534 321.776306,111.943291 323.363739,108.978325 
	C324.969025,105.980042 326.128174,102.693832 321.555389,99.892151 
M491.163422,187.370132 
	C489.140137,186.621658 487.135712,185.815994 485.088226,185.140854 
	C483.060638,184.472260 480.989624,183.935303 478.937653,183.340607 
	C494.788818,192.474945 507.817383,208.579529 529.072998,203.491928 
	C521.539673,202.740463 514.712585,199.949158 508.143768,196.315155 
	C502.767517,193.340912 497.287109,190.554977 491.163422,187.370132 
M486.906128,207.605728 
	C489.244019,208.639191 491.581909,209.672653 493.919800,210.706131 
	C494.031219,210.396576 494.142639,210.087021 494.254059,209.777481 
	C490.090057,207.644608 485.926056,205.511719 481.762054,203.378845 
	C482.737976,205.618149 484.468903,206.497574 486.906128,207.605728 
z"/>
<path fill="#000000" opacity="1.000000" stroke="none" 
	d="
M130.079559,363.332855 
	C113.076828,363.467743 100.575829,346.735809 102.783195,328.066101 
	C102.884125,327.212433 103.110405,326.214142 103.992012,326.083740 
	C108.784256,325.374939 113.613586,325.342529 118.393875,326.082062 
	C119.958244,326.324097 120.001480,328.041382 120.099564,329.364410 
	C120.234993,331.191376 120.137184,333.042603 120.367821,334.854340 
	C121.169128,341.148956 124.686150,343.973907 131.335526,343.796112 
	C137.202560,343.639221 140.313248,340.637238 140.684830,334.380890 
	C140.931473,330.228363 140.551910,326.031982 140.905365,321.893890 
	C141.540939,314.452637 138.192856,309.923767 131.424561,307.351532 
	C128.319550,306.171509 125.432167,304.429230 122.354172,303.165894 
	C112.072868,298.946136 106.090736,291.422699 104.415642,280.422272 
	C102.992622,271.077148 103.066841,261.854645 106.318588,252.841904 
	C110.852791,240.274658 122.308228,233.016556 134.705643,234.853821 
	C147.066452,236.685638 157.922562,247.975677 158.194183,260.474884 
	C158.533478,276.087769 160.385529,272.890381 146.045990,273.385132 
	C142.394470,273.511139 140.812408,272.152283 140.924683,268.521698 
	C141.007050,265.858917 140.780365,263.228729 139.871109,260.648285 
	C138.420563,256.531616 135.599258,254.484009 131.292313,254.255341 
	C126.897842,254.022034 123.820602,255.909409 122.404961,260.029327 
	C120.292160,266.178131 120.682884,272.512787 121.827026,278.759888 
	C122.295860,281.319733 124.408562,282.990295 126.745483,284.116486 
	C131.095551,286.212799 135.362991,288.540497 139.860977,290.258240 
	C151.210236,294.592438 157.352417,302.754700 158.060852,314.751404 
	C158.619431,324.210175 159.020950,333.698792 156.486404,343.045349 
	C152.846329,356.468689 144.394302,363.181458 130.079559,363.332855 
z"/>
<path fill="#000000" opacity="1.000000" stroke="none" 
	d="
M557.055969,331.162567 
	C557.135193,333.775574 557.100098,335.950012 557.314148,338.099701 
	C557.605042,341.021362 559.045105,343.162598 562.125793,343.664398 
	C565.302307,344.181824 568.071960,343.699493 569.668213,340.340454 
	C570.606262,338.366516 570.515625,335.389496 573.619141,335.172913 
	C577.919739,334.872803 582.296265,334.228851 586.499329,335.555939 
	C588.772095,336.273590 588.250488,338.520966 588.040283,340.305603 
	C586.521484,353.200623 577.042175,362.931488 565.672180,363.323517 
	C551.732971,363.804138 541.859375,356.440308 540.417358,341.929047 
	C538.726257,324.911804 538.418274,307.648834 540.720764,290.617950 
	C542.343567,278.614838 551.517395,271.013702 562.843323,270.698853 
	C574.522583,270.374146 584.091614,277.525848 586.943604,289.187195 
	C589.549377,299.841705 588.008240,310.740845 588.192871,321.533936 
	C588.242493,324.433075 585.945129,324.372009 583.906067,324.378387 
	C577.075928,324.399750 570.229309,324.690308 563.421021,324.307861 
	C558.418396,324.026855 556.162048,325.572510 557.055969,331.162567 
M570.669617,297.171021 
	C570.446838,290.591797 563.306519,288.914734 560.302673,291.394318 
	C555.279480,295.540710 556.933472,301.280731 557.444458,306.312622 
	C557.887695,310.677185 562.246094,308.381500 564.883423,308.849030 
	C569.420044,309.653229 571.381409,307.641083 570.789978,303.024811 
	C570.580017,301.385864 570.727905,299.701080 570.669617,297.171021 
z"/>
<path fill="#000000" opacity="1.000000" stroke="none" 
	d="
M450.645355,304.015076 
	C450.546722,297.521729 450.556458,291.549133 452.719696,285.805298 
	C456.613281,275.467010 466.547546,269.457520 477.631439,270.803253 
	C488.228363,272.089935 497.096558,280.394531 498.210724,290.839905 
	C499.994385,307.561707 500.201508,324.367767 498.354370,341.079773 
	C496.657684,356.430176 487.035980,364.164581 471.941071,363.301971 
	C460.204895,362.631287 451.088196,352.173553 450.748016,338.446838 
	C450.467834,327.141327 450.661499,315.824066 450.645355,304.015076 
M476.091705,343.686432 
	C480.197754,342.699738 481.632324,339.674622 481.654602,335.897064 
	C481.729065,323.282654 481.759338,310.666443 481.620239,298.053009 
	C481.568024,293.318176 478.780487,290.430328 474.861450,290.354919 
	C470.885712,290.278412 468.211365,292.869965 468.139709,297.937225 
	C467.956726,310.878296 468.046509,323.824829 468.174683,336.767761 
	C468.219269,341.275024 470.498932,343.924316 476.091705,343.686432 
z"/>
<path fill="#000000" opacity="1.000000" stroke="none" 
	d="
M385.353638,327.000122 
	C385.346466,337.497040 385.211792,347.496338 385.398376,357.489624 
	C385.467377,361.185394 384.195343,362.612274 380.511383,362.395325 
	C376.870667,362.180969 373.207520,362.348480 369.324677,362.348480 
	C368.701294,360.497131 368.147217,358.851532 367.453033,356.789856 
	C364.105438,359.651764 361.254822,362.526825 357.100037,363.195282 
	C349.024933,364.494507 342.164062,360.738892 339.031403,353.085907 
	C337.378113,349.046967 336.681702,344.802032 336.690918,340.406342 
	C336.733887,319.912720 336.693512,299.418976 336.707550,278.925262 
	C336.712280,272.001312 336.994965,271.740509 343.615784,271.697784 
	C354.234222,271.629242 354.234680,271.629242 354.243774,282.227295 
	C354.258759,299.721893 354.234894,317.216614 354.308655,334.710968 
	C354.333954,340.705963 356.775085,343.715698 361.224670,343.829590 
	C364.541901,343.914520 366.712830,342.390350 367.455475,339.240021 
	C368.178314,336.173615 368.656036,333.062073 368.642212,329.854462 
	C368.567535,312.526794 368.753967,295.196564 368.514893,277.871887 
	C368.448151,273.035919 370.043091,271.492249 374.818481,271.629395 
	C386.666656,271.969727 385.313782,270.560852 385.355255,282.013702 
	C385.408966,296.842316 385.358948,311.671265 385.353638,327.000122 
z"/>
<path fill="#000000" opacity="1.000000" stroke="none" 
	d="
M301.148254,270.709991 
	C315.999237,271.039062 325.838196,280.299377 326.222565,294.775452 
	C326.620483,309.761200 326.629272,324.774963 326.206970,339.759521 
	C325.828247,353.198059 315.993744,363.086212 303.747162,363.328278 
	C289.679932,363.606293 280.034241,355.233643 278.680481,341.031494 
	C277.161407,325.094788 277.138550,309.111237 278.651367,293.165100 
	C279.877869,280.237122 287.661407,272.459961 301.148254,270.709991 
M309.594452,326.303925 
	C309.480103,316.980194 309.565277,307.647766 309.160828,298.336639 
	C308.979187,294.155457 307.415833,290.312531 302.095154,290.364746 
	C297.912384,290.405762 295.488373,293.613373 295.374390,299.209839 
	C295.289581,303.373688 295.347778,307.540558 295.349762,311.706085 
	C295.353668,319.870483 295.248138,328.037231 295.418579,336.198242 
	C295.502502,340.216919 297.172668,343.409180 301.763947,343.733276 
	C306.004974,344.032623 308.109924,341.696991 308.936462,337.685303 
	C309.652344,334.210663 309.545929,330.728516 309.594452,326.303925 
z"/>
<path fill="#000000" opacity="1.000000" stroke="none" 
	d="
M424.893616,341.817139 
	C428.191193,334.380096 426.570709,329.642273 419.754364,326.299866 
	C416.320618,324.616150 412.652435,323.387726 409.296356,321.572449 
	C398.330078,315.641113 393.883087,305.788879 395.699280,291.985504 
	C397.007721,282.040955 404.457336,273.716309 414.199005,271.312683 
	C425.420929,268.543884 436.244171,274.914154 440.361816,286.711426 
	C444.143372,297.545868 443.601471,298.304993 432.437195,298.307037 
	C429.014832,298.307648 425.952271,298.578613 425.027863,293.828339 
	C424.414154,290.674591 421.482513,289.172485 418.068176,289.328888 
	C414.437073,289.495270 412.936279,291.913605 411.956024,294.969788 
	C410.790192,298.604370 411.775970,301.813538 414.765350,303.790039 
	C418.066803,305.972900 421.724945,307.772247 425.448761,309.134430 
	C445.574982,316.496674 447.164337,340.970001 437.111053,354.183258 
	C430.999298,362.216034 420.442108,365.605774 411.251587,362.293762 
	C401.887970,358.919434 394.282532,348.141907 394.711029,338.814941 
	C394.748474,338.000031 394.670837,336.829895 395.148407,336.441071 
	C398.627411,333.608826 402.783844,335.309326 406.643799,334.984283 
	C409.037048,334.782776 410.493561,335.851105 411.399567,338.378540 
	C414.045227,345.758911 418.565552,346.928772 424.893616,341.817139 
z"/>
<path fill="#000000" opacity="1.000000" stroke="none" 
	d="
M518.030945,244.661652 
	C526.339783,244.694260 526.340027,244.694260 526.352356,252.534988 
	C526.359985,257.364777 526.506287,262.199768 526.326660,267.022583 
	C526.199097,270.445740 527.458374,272.130615 530.945618,271.671631 
	C535.616211,271.056915 536.805908,273.480225 536.362183,277.557404 
	C536.218811,278.874603 536.206421,280.233490 536.351013,281.549500 
	C536.801208,285.648224 535.579529,287.977966 530.918335,287.374023 
	C527.438721,286.923187 526.287415,288.754791 526.312744,292.116547 
	C526.422119,306.605133 526.324036,321.095184 526.398071,335.584229 
	C526.421082,340.087250 527.433594,344.021210 533.228455,343.920166 
	C533.552979,343.914490 533.999573,343.932312 534.188049,344.130585 
	C538.610596,348.781982 535.677368,354.443420 536.162537,359.621216 
	C536.473877,362.942749 533.445557,362.285461 531.416321,362.338684 
	C518.076477,362.688721 510.644501,356.414978 509.629303,343.160461 
	C508.382172,326.877472 509.107880,310.544006 509.316101,294.233276 
	C509.364471,290.442871 509.621155,287.004028 504.272583,287.264862 
	C502.742706,287.339478 501.745392,286.432526 501.729156,284.821167 
	C501.693909,281.326843 501.702484,277.831390 501.747559,274.337158 
	C501.772339,272.415558 503.048676,271.689423 504.732452,271.776703 
	C508.519348,271.972900 509.078430,269.646484 509.053406,266.642639 
	C509.015900,262.146545 509.093506,257.649628 509.106964,253.153030 
	C509.132294,244.682266 509.127777,244.682251 518.030945,244.661652 
z"/>
<path fill="#000000" opacity="1.000000" stroke="none" 
	d="
M185.290741,348.989319 
	C185.290970,349.820740 185.291763,350.153992 185.291168,350.487244 
	C185.269119,362.922943 183.283356,364.482574 170.860596,362.336548 
	C167.770340,361.802704 167.793045,359.759918 167.783432,357.570190 
	C167.744690,348.739227 167.747452,339.908020 167.745575,331.076904 
	C167.741837,313.581238 167.726074,296.085571 167.755508,278.589966 
	C167.766556,272.024658 168.084152,271.750824 174.455734,271.695251 
	C185.281326,271.600800 185.286346,271.600800 185.288300,282.507477 
	C185.292267,304.502045 185.290207,326.496582 185.290741,348.989319 
z"/>
<path fill="#000000" opacity="1.000000" stroke="none" 
	d="
M207.915634,362.374695 
	C195.049240,362.265808 196.769913,363.585602 196.735825,351.838593 
	C196.664841,327.384216 196.691635,302.929535 196.704605,278.474976 
	C196.708008,272.045105 197.052200,271.746674 203.508881,271.697021 
	C214.223816,271.614594 214.237518,271.614594 214.240036,282.082397 
	C214.246002,306.869629 214.146683,331.657532 214.318207,356.443542 
	C214.349365,360.944885 213.043915,363.055176 207.915634,362.374695 
z"/>
<path fill="#000000" opacity="1.000000" stroke="none" 
	d="
M167.787933,250.698975 
	C167.771774,247.233551 167.760681,244.239716 167.780396,241.246094 
	C167.786972,240.249771 167.517746,239.032806 167.978745,238.293335 
	C171.336807,232.906830 176.647293,236.696655 180.983917,235.746475 
	C183.350510,235.227951 185.255600,236.241989 185.218674,239.197571 
	C185.197906,240.859833 185.272324,242.523026 185.274673,244.185852 
	C185.290070,255.092545 181.563354,257.881439 170.788330,255.164398 
	C168.573807,254.606003 167.929092,253.150650 167.787933,250.698975 
z"/>
<path fill="#000000" opacity="1.000000" stroke="none" 
	d="
M214.216003,241.141663 
	C214.226624,242.622055 214.351791,243.637405 214.217850,244.617355 
	C213.760956,247.959961 215.977203,252.487625 212.537079,254.397720 
	C208.647675,256.557281 203.752594,255.375870 199.307709,254.944626 
	C197.346207,254.754333 196.759872,253.022430 196.755478,251.202881 
	C196.745834,247.206635 196.730988,243.210007 196.781052,239.214325 
	C196.791214,238.403625 196.815216,237.115219 197.278259,236.862198 
	C201.779358,234.402725 206.667252,235.903320 211.385864,235.819260 
	C214.573746,235.762466 214.041351,238.577362 214.216003,241.141663 
z"/>
</svg>