<?xml version="1.0" encoding="UTF-8"?>
<svg id="Layer_1" xmlns="http://www.w3.org/2000/svg" version="1.1" viewBox="0 0 550 550">
  <!-- Generator: Adobe Illustrator 30.0.0, SVG Export Plug-In . SVG Version: 2.1.1 Build 123)  -->
  <path d="M230.2,137.1c11.7-9.2,22.2-9.2,33.3,0,2.6,2.2,5.4,2.9,8.6,3.5,8.4,1.6,16.3,4.1,19.3,13.5.8,2.5,3.2,2.9,5.3,3.3,7.7,1.4,13.9,4.4,16.6,12.4,1.4,4.1,5.5,3.9,8.8,4.7,11.3,2.9,15.7,9.7,13.3,21.1-.4,1.9-1,3.9-1.7,5.7-1.4,3.5,0,5.1,3.4,5.3,4.3.2,8.6.4,13.1.7.6-1.6,1.1-3.2,1.8-4.6,1.6-3.3,5.2-5.3,7.8-3.6,5.7,4,11.3-.7,16.7.9,1.7.5,2.5-1.4,3.6-2.3,8.7-8.2,18.4-14.2,30.6-15.4,10.7-1.1,21,.7,30.6,5.3,8.7,4.1,17.1,9.1,25.8,13.2,8.8,4.3,18.1,5.6,27.5,1.8,2-.8,3.5-.3,4.8,1.4,1.7,2.2,1.4,4.4-.2,6.4-4.4,5.5-10.5,6.6-17,6.4-10.3-.3-19.3-4.5-28.3-8.9-10.9-5.4-21.5-11.4-35.2-11.4,12.7,2.9,22.4,9.9,32.6,15.7,6.8,3.9,13.7,7.5,21.6,8.9,8.5,1.5,16.2-.1,23.2-5,2.6-1.8,5.5-2.4,7.5.3,2,2.7,1.8,6.4-.9,8-4.3,2.6-4.8,6.7-6.5,10.6-4.9,11.8-13.8,20-24.9,25.5-26.4,13.1-53.2,14.7-80.3,2.1-7.1-3.3-12.6-8.6-17.7-14.7-4.9,3.3-9.4,3.2-13.3-1.5-.6-.7-1.4-.6-2.3-.5-8.8,1.1-10,.2-11.8-9.1-4.9-.2-9.7-1.4-14.5-2.6-2.9-.7-4.1.5-4.6,3-2.8,16.2-10.8,29.6-22.5,40.8-2.2,2.2-2.6,4-.6,6.4,5.6,7,9,15.6,16.7,20.9.3.2.3.8.8,2-6.6,0-12.9,0-19.1,0-2.1,0-2.6-1.7-3.1-3.4-1.3-4.5-2.9-8.9-4-13.4-1-3.8-2.9-5.7-7.1-5.2-3.2.4-6.6.1-9.3-2.1.5-2.1,2.2-2.2,3.5-2.8,16.5-7.7,25.5-21.3,30-38.4.9-3.2,0-4.5-3.5-4.8-5.6-.5-11.3-1.2-16.8-2.2-10.6-1.9-19.8.4-27.4,8.3-.5.6-1.3.9-1.9,1.3-1.9-1-2.1-2.8-2.5-4.3-4.4-18-17-28-33.5-34.1-3.6-1.3-7.1-2.9-10.5-4.6-2.6-1.3-4.5-3.3-5.3-6.3-1.2-4.7.7-7.3,5.5-6.5,5.6,1,11.1,2.4,16.6,3.5,10.7,2.2,18.7-1.3,23.2-10.1,1.8-3.4,1.4-6-2.1-7.9-10.7-5.9-22.3-9.6-33.5-14.5-2.5-1.1-4.8,0-6.4,1.7-12.1,12-22.4,25.5-30.4,40.6-2.4,4.5-.5,9.5.9,14.1,5.4,17.7,15.5,32.7,28,46.1,3.6,3.9,7.3,7.7,11.4,12-6.8,3.8-7.3,10.7-9.1,16.8-10.5,35.8-18,72.3-27.3,108.4-.5,2.1-.1,5.3-3.1,5.7-4.2.5-8.7,1.1-12.8-.5-1.1-.4-1.3-2.2-1.6-3.5-6.2-26.9-12.4-53.8-18.7-80.7-.9-3.9-.2-5.9,4.5-5.8,14.4.3,12.1-1.7,14.9,12.4,2.5,12.7,4.8,25.4,7.6,38.2,2.8-5.4,3.4-11.4,4.5-17.2,4.7-25.5,10.1-50.9,15.6-76.2.5-2.4.4-4.1-1.2-6-11.5-13.6-18.3-29.7-24.1-46.3-3-8.7-3.3-8.5-12.7-9.5-12.6-1.3-25-3.4-37.6-5.2-20.6-2.9-41.2-5.9-61.8-8.7-8.7-1.2-15-8.6-13.8-16.5,1.3-8.2,9-13.1,17.9-11.8,25.8,3.7,51.7,7.1,77.5,10.7,10.4,1.4,20.8,2.8,31.1,4.6,3.8.7,6.4-.2,8.7-3.2,5.2-6.8,10.2-13.6,15.6-20.2,5.9-7.2,12.7-13.3,22.9-13.4,3.4,0,4.1-3.5,5.9-5.5,1.1-1.2,2.2-2.5,3.6-3.9M291.4,206.9c2.1-4.9,4.3-9.8,6.4-14.7,2.1-4.9,4.3-9.8,5.4-15,.9-4.1-2-8.8-5.9-9.7-4.6-1-6.2,2-7.5,5.5-1,2.8-2.1,5.6-3.3,8.3-3.4,7.6-7.8,14.7-10.3,22.7-2,6.4-1.2,9.4,2.9,11,4.4,1.7,7.9,0,10.8-5.4.4-.7.7-1.5,1.5-2.9M259.2,208.7c3-.3,4.7-2.2,5.8-4.8,5.7-13.8,11.9-27.4,16.7-41.6.7-2,.8-3.8-.6-5.6-5.1-6.9-13.7-6.3-17.4,1.3-.6,1.2-1,2.4-1.6,3.6-1.3,2.6-1,4.7,1.2,6.7,4.6,4.1,4.9,9.2,3.1,14.6-2.3,6.9-6.3,12.4-12.6,16.1-1.7,1-3.6,2.1-3.3,4.5.3,2.4,2.1,3.8,4.1,4.6,1.2.5,2.6.5,4.7.6M320.5,202c1.2-2.9,2.5-5.8,3.6-8.8,1.6-4.2-.5-6.8-4.1-8.3-3.5-1.4-6.9-1.4-8.9,2.8-4,8.8-8.1,17.5-12,26.4-1.8,4.2.2,7.1,4.8,7.7,3.7.5,6-1.6,7.9-4.2,3.3-4.6,5.7-9.8,8.6-15.5M450.9,225.7c-5-2.7-9.9-5.6-15-8-8.4-4.1-17-7.5-26.7-7.1,4.2,1.1,8.2,2.8,12,4.9,6.5,3.7,13,7.5,19.4,11.4,9.9,6,20.4,8.3,31.8,5.8-7.2-1.5-14.5-2.7-21.5-7M252.6,142.9c-6.6-2.2-14.6,1.1-17.7,7.2-.6,1.2-.8,2.3.1,3.2,3.6,3.4,7.9,6,12.7,6.1,4,0,5-4.4,6.6-7.4,1.6-3,2.8-6.3-1.8-9.1M422.2,230.4c-2-.7-4-1.6-6.1-2.2-2-.7-4.1-1.2-6.2-1.8,15.9,9.1,28.9,25.2,50.1,20.2-7.5-.8-14.4-3.5-20.9-7.2-5.4-3-10.9-5.8-17-8.9M417.9,250.6c2.3,1,4.7,2.1,7,3.1.1-.3.2-.6.3-.9-4.2-2.1-8.3-4.3-12.5-6.4,1,2.2,2.7,3.1,5.1,4.2Z"/>
  <path d="M61.1,406.3c-17,.1-29.5-16.6-27.3-35.3.1-.9.3-1.9,1.2-2,4.8-.7,9.6-.7,14.4,0,1.6.2,1.6,2,1.7,3.3.1,1.8,0,3.7.3,5.5.8,6.3,4.3,9.1,11,8.9,5.9-.2,9-3.2,9.3-9.4.2-4.2-.1-8.3.2-12.5.6-7.4-2.7-12-9.5-14.5-3.1-1.2-6-2.9-9.1-4.2-10.3-4.2-16.3-11.7-17.9-22.7-1.4-9.3-1.3-18.6,1.9-27.6,4.5-12.6,16-19.8,28.4-18,12.4,1.8,23.2,13.1,23.5,25.6.3,15.6,2.2,12.4-12.1,12.9-3.7.1-5.2-1.2-5.1-4.9,0-2.7-.1-5.3-1.1-7.9-1.5-4.1-4.3-6.2-8.6-6.4-4.4-.2-7.5,1.7-8.9,5.8-2.1,6.1-1.7,12.5-.6,18.7.5,2.6,2.6,4.2,4.9,5.4,4.4,2.1,8.6,4.4,13.1,6.1,11.3,4.3,17.5,12.5,18.2,24.5.6,9.5,1,18.9-1.6,28.3-3.6,13.4-12.1,20.1-26.4,20.3Z"/>
  <path d="M488.1,374.2c0,2.6,0,4.8.3,6.9.3,2.9,1.7,5.1,4.8,5.6,3.2.5,5.9,0,7.5-3.3.9-2,.8-5,4-5.2,4.3-.3,8.7-.9,12.9.4,2.3.7,1.8,3,1.5,4.7-1.5,12.9-11,22.6-22.4,23-13.9.5-23.8-6.9-25.3-21.4-1.7-17-2-34.3.3-51.3,1.6-12,10.8-19.6,22.1-19.9,11.7-.3,21.2,6.8,24.1,18.5,2.6,10.7,1.1,21.6,1.2,32.3,0,2.9-2.2,2.8-4.3,2.8-6.8,0-13.7.3-20.5,0-5-.3-7.3,1.3-6.4,6.9M501.7,340.2c-.2-6.6-7.4-8.3-10.4-5.8-5,4.1-3.4,9.9-2.9,14.9.4,4.4,4.8,2.1,7.4,2.5,4.5.8,6.5-1.2,5.9-5.8-.2-1.6,0-3.3-.1-5.9Z"/>
  <path d="M381.6,347c0-6.5,0-12.5,2.1-18.2,3.9-10.3,13.8-16.3,24.9-15,10.6,1.3,19.5,9.6,20.6,20,1.8,16.7,2,33.5.1,50.2-1.7,15.4-11.3,23.1-26.4,22.2-11.7-.7-20.9-11.1-21.2-24.9-.3-11.3,0-22.6-.1-34.4M407.1,386.7c4.1-1,5.5-4,5.6-7.8,0-12.6.1-25.2,0-37.8,0-4.7-2.8-7.6-6.8-7.7-4,0-6.7,2.5-6.7,7.6-.2,12.9,0,25.9,0,38.8,0,4.5,2.3,7.2,7.9,6.9Z"/>
  <path d="M316.4,370c0,10.5-.1,20.5,0,30.5,0,3.7-1.2,5.1-4.9,4.9-3.6-.2-7.3,0-11.2,0-.6-1.9-1.2-3.5-1.9-5.6-3.3,2.9-6.2,5.7-10.4,6.4-8.1,1.3-14.9-2.5-18.1-10.1-1.7-4-2.3-8.3-2.3-12.7,0-20.5,0-41,0-61.5,0-6.9.3-7.2,6.9-7.2q10.6,0,10.6,10.5c0,17.5,0,35,0,52.5,0,6,2.5,9,6.9,9.1,3.3,0,5.5-1.4,6.2-4.6.7-3.1,1.2-6.2,1.2-9.4,0-17.3.1-34.7-.1-52,0-4.8,1.5-6.4,6.3-6.2,11.8.3,10.5-1.1,10.5,10.4,0,14.8,0,29.7,0,45Z"/>
  <path d="M232.1,313.7c14.9.3,24.7,9.6,25.1,24.1.4,15,.4,30,0,45-.4,13.4-10.2,23.3-22.5,23.6-14.1.3-23.7-8.1-25.1-22.3-1.5-15.9-1.5-31.9,0-47.9,1.2-12.9,9-20.7,22.5-22.5M240.6,369.3c-.1-9.3,0-18.7-.4-28-.2-4.2-1.7-8-7.1-8-4.2,0-6.6,3.2-6.7,8.8,0,4.2,0,8.3,0,12.5,0,8.2-.1,16.3,0,24.5,0,4,1.8,7.2,6.3,7.5,4.2.3,6.3-2,7.2-6,.7-3.5.6-7,.7-11.4Z"/>
  <path d="M355.9,384.8c3.3-7.4,1.7-12.2-5.1-15.5-3.4-1.7-7.1-2.9-10.5-4.7-11-5.9-15.4-15.8-13.6-29.6,1.3-9.9,8.8-18.3,18.5-20.7,11.2-2.8,22,3.6,26.2,15.4,3.8,10.8,3.2,11.6-7.9,11.6-3.4,0-6.5.3-7.4-4.5-.6-3.2-3.5-4.7-7-4.5-3.6.2-5.1,2.6-6.1,5.6-1.2,3.6-.2,6.8,2.8,8.8,3.3,2.2,7,4,10.7,5.3,20.1,7.4,21.7,31.8,11.7,45-6.1,8-16.7,11.4-25.9,8.1-9.4-3.4-17-14.2-16.5-23.5,0-.8,0-2,.4-2.4,3.5-2.8,7.6-1.1,11.5-1.5,2.4-.2,3.8.9,4.8,3.4,2.6,7.4,7.2,8.6,13.5,3.4Z"/>
  <path d="M449,287.7q8.3,0,8.3,7.9c0,4.8.2,9.7,0,14.5-.1,3.4,1.1,5.1,4.6,4.6,4.7-.6,5.9,1.8,5.4,5.9-.1,1.3-.2,2.7,0,4,.5,4.1-.8,6.4-5.4,5.8-3.5-.5-4.6,1.4-4.6,4.7.1,14.5,0,29,0,43.5,0,4.5,1,8.4,6.8,8.3.3,0,.8,0,1,.2,4.4,4.7,1.5,10.3,2,15.5.3,3.3-2.7,2.7-4.7,2.7-13.3.4-20.8-5.9-21.8-19.2-1.2-16.3-.5-32.6-.3-48.9,0-3.8.3-7.2-5-7-1.5,0-2.5-.8-2.5-2.4,0-3.5,0-7,0-10.5,0-1.9,1.3-2.6,3-2.6,3.8.2,4.3-2.1,4.3-5.1,0-4.5,0-9,0-13.5q0-8.5,8.9-8.5Z"/>
  <path d="M116.3,392c0,.8,0,1.2,0,1.5,0,12.4-2,14-14.4,11.8-3.1-.5-3.1-2.6-3.1-4.8,0-8.8,0-17.7,0-26.5,0-17.5,0-35,0-52.5,0-6.6.3-6.8,6.7-6.9q10.8,0,10.8,10.8c0,22,0,44,0,66.5Z"/>
  <path d="M138.9,405.4c-12.9-.1-11.1,1.2-11.2-10.5,0-24.5,0-48.9,0-73.4,0-6.4.3-6.7,6.8-6.8q10.7,0,10.7,10.4c0,24.8,0,49.6,0,74.4,0,4.5-1.3,6.6-6.4,5.9Z"/>
  <path d="M98.8,293.7c0-3.5,0-6.5,0-9.5,0-1-.3-2.2.2-3,3.4-5.4,8.7-1.6,13-2.5,2.4-.5,4.3.5,4.2,3.5,0,1.7,0,3.3,0,5,0,10.9-3.7,13.7-14.5,11-2.2-.6-2.9-2-3-4.5Z"/>
  <path d="M145.2,284.1c0,1.5.1,2.5,0,3.5-.5,3.3,1.8,7.9-1.7,9.8-3.9,2.2-8.8,1-13.2.5-2-.2-2.5-1.9-2.6-3.7,0-4,0-8,0-12,0-.8,0-2.1.5-2.4,4.5-2.5,9.4-1,14.1-1,3.2,0,2.7,2.8,2.8,5.3Z"/>
</svg>